<?xml version="1.0" standalone="no"?>
<!DOCTYPE svg PUBLIC "-//W3C//DTD SVG 20010904//EN"
 "http://www.w3.org/TR/2001/REC-SVG-20010904/DTD/svg10.dtd">
<svg version="1.0" xmlns="http://www.w3.org/2000/svg"
 width="954.000000pt" height="955.000000pt" viewBox="0 0 954.000000 955.000000"
 preserveAspectRatio="xMidYMid meet">
<metadata>
Created by potrace 1.16, written by Peter Selinger 2001-2019
</metadata>
<g transform="translate(0.000000,955.000000) scale(0.100000,-0.100000)"
fill="#000000" stroke="none">
<path d="M9530 4775 l0 -4765 -4767 -3 -4768 -2 4773 -3 4772 -2 0 4770 c0
2624 -2 4770 -5 4770 -3 0 -5 -2144 -5 -4765z"/>
<path d="M4886 9499 c-5 -13 -8 -28 -7 -32 1 -4 -4 -18 -11 -30 -20 -38 -27
-109 -12 -132 15 -23 4 -80 -23 -122 -10 -16 -12 -23 -4 -23 7 0 9 -4 6 -10
-3 -5 1 -10 9 -10 22 0 27 -15 15 -46 -9 -27 -65 -83 -81 -84 -4 0 -26 20 -49
45 -23 25 -51 45 -62 45 -18 0 -17 -2 7 -21 22 -18 26 -28 26 -75 0 -69 20
-136 38 -129 18 7 51 -35 44 -54 -3 -8 -1 -12 4 -8 6 3 15 -3 22 -13 10 -16 7
-22 -15 -39 -14 -12 -34 -21 -44 -21 -20 0 -59 45 -59 69 0 17 -76 149 -107
187 -10 12 -31 24 -46 28 l-28 7 35 -36 c37 -37 39 -41 37 -90 -1 -16 -2 -34
-2 -40 0 -5 5 -30 12 -55 21 -80 19 -76 29 -61 13 22 34 7 48 -33 12 -33 12
-40 -3 -56 -18 -20 -49 -16 -41 6 3 8 2 13 -3 11 -5 -1 -32 32 -60 75 -29 42
-61 84 -72 94 -18 16 -19 16 -21 -2 0 -10 -2 -26 -3 -34 -1 -8 2 -19 6 -25 4
-5 10 -25 14 -44 4 -20 10 -29 14 -22 11 18 38 3 51 -29 23 -55 -26 -91 -74
-55 -24 18 -36 5 -36 -40 0 -17 -7 -41 -16 -54 -16 -23 -16 -23 19 -19 20 1
37 -1 37 -7 1 -5 9 -19 19 -30 9 -11 25 -46 34 -77 13 -42 24 -59 40 -64 12
-4 25 -11 29 -17 10 -17 38 12 38 40 0 24 27 99 34 92 2 -2 6 -58 9 -123 l6
-119 -36 -35 c-28 -27 -33 -36 -22 -43 25 -16 75 -9 123 16 42 23 46 23 46 6
0 -10 7 -24 15 -31 8 -7 15 -19 15 -26 0 -8 9 -14 21 -14 11 0 18 -4 14 -9 -3
-5 1 -16 9 -23 10 -11 45 -15 130 -16 64 -1 116 2 116 6 0 4 -14 27 -31 52
-49 73 -99 177 -99 208 0 19 19 51 60 102 65 83 76 115 68 220 -5 77 -28 101
-118 129 -37 12 -73 28 -80 36 -23 28 -29 131 -15 272 8 76 17 199 21 273 6
125 5 137 -13 159 l-20 24 -7 -24z m1 -901 c15 -16 32 -28 40 -28 7 0 28 -7
46 -16 52 -25 71 -104 25 -104 -15 0 -18 -5 -13 -20 5 -14 2 -20 -9 -20 -9 0
-16 -4 -16 -9 0 -6 -26 -35 -57 -65 -56 -54 -106 -77 -132 -61 -7 3 -11 -2
-11 -14 0 -27 -22 -27 -45 -1 -24 27 -32 157 -15 232 16 66 32 98 71 143 22
24 30 42 26 56 -7 28 10 65 37 77 20 9 21 7 24 -67 3 -66 6 -79 29 -103z"/>
<path d="M7442 9477 c-6 -7 -12 -26 -15 -42 -2 -17 -7 -37 -10 -45 -4 -8 -11
-49 -15 -92 -8 -79 -3 -98 30 -111 10 -3 16 -12 14 -19 -2 -7 -10 -35 -17 -63
-6 -27 -15 -54 -18 -60 -8 -15 -7 -65 2 -65 4 0 7 6 7 14 0 28 18 26 33 -2 12
-26 12 -37 -3 -97 l-17 -69 30 -27 c32 -30 52 -29 42 0 -10 32 -13 120 -4 123
20 7 9 458 -12 525 -11 35 -32 48 -47 30z"/>
<path d="M2053 9450 c3 -14 7 -56 8 -94 1 -44 6 -69 15 -73 7 -2 16 -12 20
-21 11 -27 21 -122 12 -122 -4 0 -8 -4 -8 -10 0 -5 6 -10 14 -10 22 0 38 -94
27 -155 -6 -31 -6 -54 0 -61 5 -6 7 -18 4 -27 -4 -9 13 -34 47 -69 60 -62 85
-100 93 -148 5 -29 4 -32 -10 -20 -20 17 -19 6 2 -27 17 -26 17 -27 -1 -20
-19 8 -19 7 -2 -12 13 -14 16 -26 10 -43 -4 -13 -7 -26 -6 -31 5 -19 -20 -100
-42 -131 -14 -21 -22 -44 -19 -56 9 -33 -5 -70 -27 -70 -17 0 -19 -6 -16 -37
1 -21 5 -45 9 -53 3 -8 8 -27 11 -42 9 -40 37 -38 30 2 -13 62 38 122 74 87 8
-9 22 -37 31 -64 l16 -48 54 -3 53 -3 -6 33 c-14 70 -25 277 -19 373 4 74 1
117 -10 165 -9 36 -30 139 -47 230 -45 242 -135 491 -181 503 -15 4 -19 1 -15
-11 3 -9 10 -46 16 -82 8 -46 18 -70 33 -82 17 -13 21 -27 22 -77 0 -34 3 -61
8 -61 4 0 7 -6 7 -14 0 -8 7 -16 15 -20 17 -6 21 -91 5 -116 -6 -9 -5 -17 3
-22 8 -6 5 -14 -13 -28 -36 -27 -70 -34 -88 -17 -18 18 -8 37 20 37 18 0 19 4
13 38 -4 20 -11 60 -15 87 -16 102 -40 212 -59 265 -10 30 -23 73 -29 96 -7
22 -24 51 -38 65 l-27 24 6 -25z"/>
<path d="M7179 9388 c0 -7 -2 -22 -5 -33 -17 -82 -8 -177 20 -214 6 -7 11 -46
12 -85 2 -81 11 -109 30 -102 21 8 28 -14 29 -89 l0 -70 35 3 c19 2 36 5 36 5
5 6 -28 212 -40 258 -9 31 -25 109 -36 174 -11 66 -27 129 -35 142 -17 25 -45
31 -46 11z"/>
<path d="M1958 9348 c-1 -25 -1 -29 6 -98 6 -64 36 -199 52 -236 9 -20 11 -49
7 -82 l-6 -52 37 0 c47 0 55 19 33 80 -18 52 -42 155 -62 275 -7 44 -18 92
-24 108 -13 33 -40 36 -43 5z"/>
<path d="M5968 9301 c10 -6 10 -10 -3 -21 -8 -7 -15 -22 -15 -34 0 -12 -7 -31
-15 -43 -16 -23 -28 -166 -13 -157 4 3 8 14 8 25 0 25 30 25 37 -1 3 -11 9
-20 14 -20 14 0 10 -63 -5 -82 -30 -40 -55 -11 -95 109 -17 50 -31 105 -31
123 0 25 -4 31 -17 28 -42 -8 -62 -131 -37 -227 11 -44 11 -62 2 -88 -8 -23
-9 -36 -1 -44 17 -17 -8 -115 -39 -148 -34 -36 -35 -51 -4 -51 20 0 24 -6 29
-48 8 -65 36 -134 53 -128 7 3 27 0 44 -7 39 -15 52 1 44 54 -4 23 -1 47 9 66
13 25 14 32 2 44 -13 14 -18 37 -16 71 1 22 38 42 59 32 9 -4 21 -8 26 -8 5
-1 14 -15 20 -33 15 -43 26 -52 26 -20 0 28 15 44 25 27 12 -19 33 -10 45 20
11 26 18 30 54 31 22 1 32 3 21 6 -32 8 -42 23 -16 23 13 0 39 10 58 21 l35
22 -4 -29 c-2 -20 -10 -30 -28 -34 -24 -6 -24 -6 -4 -12 33 -9 40 -77 13 -131
-31 -62 -53 -76 -99 -63 -23 6 -44 19 -51 33 -12 23 -39 32 -39 13 0 -5 -10
-10 -22 -10 -21 -1 -20 -2 6 -17 41 -22 146 -45 173 -38 14 3 23 1 23 -6 0 -7
10 -21 23 -33 12 -11 28 -34 36 -51 16 -33 22 -77 9 -69 -4 3 -8 0 -8 -5 0 -6
-7 -11 -15 -11 -8 0 -15 5 -15 10 0 6 -5 10 -10 10 -7 0 -7 -7 0 -21 13 -23 9
-30 -70 -105 -25 -24 -53 -44 -63 -44 -10 0 -20 -7 -23 -15 -4 -10 -20 -15
-51 -15 -24 0 -51 -6 -58 -14 -11 -11 -2 -13 61 -14 96 -1 111 -6 119 -44 4
-17 21 -46 38 -65 28 -31 35 -33 92 -33 l63 0 -23 63 c-22 60 -30 104 -26 157
0 15 21 47 52 80 54 58 79 104 79 143 0 28 -63 178 -97 229 -17 25 -28 60 -34
110 -5 40 -18 118 -29 173 -11 55 -25 125 -31 155 -22 111 -68 149 -153 130
-45 -10 -49 -9 -68 15 -13 17 -29 25 -51 25 -21 0 -27 -3 -19 -9z m188 -86 c4
-14 2 -45 -4 -68 -18 -70 -20 -86 -13 -84 4 1 22 -10 40 -25 35 -30 36 -52 1
-83 -16 -15 -25 -16 -44 -7 -19 9 -27 25 -40 81 -24 104 -21 157 9 186 31 32
43 31 51 0z"/>
<path d="M3739 9276 c-2 -2 -17 -6 -34 -9 -16 -2 -37 -7 -45 -10 -8 -4 -27 -8
-41 -9 -14 -2 -45 -20 -70 -39 -24 -20 -59 -41 -76 -49 -19 -7 -33 -20 -33
-29 0 -9 -18 -43 -40 -76 -23 -36 -40 -72 -40 -90 0 -34 -22 -112 -41 -147 -7
-13 -14 -41 -15 -63 -10 -169 -18 -242 -25 -251 -6 -7 -4 -25 5 -45 12 -29 12
-36 -1 -56 -9 -13 -12 -23 -8 -23 4 0 2 -7 -5 -15 -9 -10 -9 -15 -1 -15 6 0
11 -16 11 -35 0 -19 -4 -35 -9 -35 -5 0 -11 -9 -14 -21 -3 -12 -10 -18 -15
-15 -6 3 -24 -10 -41 -29 -24 -27 -31 -45 -31 -75 l0 -40 180 0 180 0 -25 50
c-18 36 -25 65 -25 109 0 59 1 61 56 123 31 35 72 86 90 114 36 56 51 69 223
203 100 78 121 99 121 121 0 14 -5 31 -12 38 -30 30 -140 3 -203 -50 -43 -36
-115 -75 -151 -83 -28 -5 -39 0 -94 45 -34 29 -64 58 -66 65 -7 17 22 165 40
210 12 28 26 40 66 57 27 11 50 24 50 28 0 4 28 6 63 3 52 -3 68 0 102 20 36
21 40 27 39 60 -1 20 -7 43 -14 52 -12 14 -41 20 -51 11z"/>
<path d="M944 9188 c3 -13 7 -36 11 -53 6 -34 -41 -193 -65 -217 -54 -52 -74
-19 -74 124 -1 95 -3 108 -18 108 -9 0 -20 5 -23 10 -14 23 -21 7 -17 -37 10
-109 -4 -205 -37 -251 -40 -56 -46 -45 -70 118 -16 105 -19 115 -39 118 -20 3
-22 0 -16 -25 4 -15 9 -57 11 -93 4 -59 2 -68 -21 -92 -15 -15 -26 -36 -26
-48 0 -11 -6 -20 -12 -20 -7 0 0 -8 17 -18 26 -16 29 -22 26 -64 -2 -36 2 -51
18 -67 27 -27 37 -26 77 4 18 14 39 25 48 25 8 0 18 5 21 10 3 6 21 10 38 10
34 0 109 26 176 61 36 18 45 20 71 9 16 -7 28 -17 27 -23 -4 -19 33 -20 39 0
13 42 51 106 73 124 22 18 23 23 15 72 -4 28 -8 82 -9 119 0 55 -4 72 -22 89
-27 28 -43 17 -43 -29 0 -20 -12 -65 -27 -99 -22 -50 -32 -63 -49 -63 -12 0
-24 6 -27 13 -5 13 7 116 18 160 8 31 -8 37 -25 10 -9 -16 -12 -16 -33 10 -28
33 -39 35 -33 5z"/>
<path d="M7066 9093 c-7 -86 -3 -129 16 -151 10 -11 14 -33 12 -63 -2 -39 1
-49 28 -74 21 -20 28 -35 25 -52 -5 -26 -3 -27 23 -13 35 19 43 47 29 103 -6
29 -18 61 -25 72 -7 11 -24 65 -39 119 -38 147 -60 165 -69 59z"/>
<path d="M5670 9098 c0 -7 -7 -25 -14 -40 -8 -15 -11 -30 -7 -33 17 -10 19
-60 4 -89 -16 -31 -7 -46 29 -46 11 0 15 -5 12 -15 -9 -23 20 -18 44 8 21 22
21 55 2 82 -4 6 -17 40 -29 78 -20 60 -41 88 -41 55z"/>
<path d="M1263 9079 c-15 -15 -17 -85 -4 -93 5 -4 8 -14 6 -24 -1 -9 2 -23 8
-29 7 -10 3 -13 -14 -14 -22 0 -23 -1 -4 -8 11 -5 24 -6 29 -3 4 2 5 -11 1
-29 -4 -19 -9 -41 -10 -49 -3 -32 -24 -67 -61 -103 -21 -20 -42 -37 -46 -37
-5 0 -16 18 -25 40 -22 50 -38 52 -30 4 7 -42 -7 -76 -27 -68 -9 3 -17 -3 -21
-15 -3 -12 -10 -21 -14 -21 -9 0 -38 -64 -44 -95 -2 -11 -9 -19 -15 -17 -7 1
-12 -5 -12 -13 0 -8 -4 -15 -9 -15 -5 0 -13 -10 -17 -22 -6 -21 -114 -136
-114 -122 0 3 -7 1 -15 -6 -8 -7 -15 -21 -15 -31 0 -11 -5 -19 -11 -19 -6 0
-8 -8 -4 -19 3 -11 1 -22 -4 -26 -6 -3 -3 -18 9 -38 11 -18 20 -46 20 -63 0
-20 6 -34 16 -38 9 -3 63 -6 121 -6 l105 0 -7 27 c-3 15 -15 45 -26 67 -28 59
-34 116 -16 152 9 16 61 79 117 139 70 77 110 130 132 175 16 36 36 76 43 90
17 33 55 157 55 181 0 22 -55 111 -63 103 -3 -3 -3 4 0 17 4 14 2 20 -5 15 -6
-3 -12 1 -14 9 -2 13 -5 14 -15 4z"/>
<path d="M7594 8895 c-7 -19 -14 -57 -14 -84 0 -41 -4 -52 -22 -62 -18 -10
-19 -13 -5 -20 9 -5 19 -30 23 -56 6 -40 4 -49 -15 -64 -28 -23 -47 -119 -31
-158 6 -16 35 -42 67 -62 81 -50 103 -73 103 -109 0 -35 -22 -40 -53 -12 -22
18 -22 19 -1 -33 3 -8 2 -15 -4 -15 -5 0 -33 -16 -62 -35 -29 -19 -56 -33 -60
-30 -5 3 -12 -1 -17 -8 -5 -9 -24 -14 -52 -13 -24 0 -46 -4 -48 -10 -2 -7 13
-11 41 -11 59 -1 89 -11 82 -29 -3 -7 -1 -16 5 -19 5 -4 7 -11 4 -16 -12 -18
32 -49 79 -55 l47 -7 -7 90 -7 90 66 41 c98 62 117 102 102 218 -6 47 -12 62
-39 86 -18 16 -48 37 -67 46 -32 16 -34 21 -41 77 -4 41 -2 70 8 93 21 52 28
126 13 153 -30 58 -74 64 -95 14z"/>
<path d="M8745 8890 c11 -5 32 -9 48 -9 15 -1 27 -5 27 -11 0 -5 10 -10 23
-11 21 0 21 -1 2 -9 -11 -5 -14 -9 -7 -9 7 -1 10 -5 7 -11 -3 -6 4 -10 18 -10
14 0 30 -7 37 -15 7 -9 21 -13 31 -10 15 5 19 1 19 -17 0 -22 0 -22 14 -2 8
11 16 30 18 43 l3 23 26 -21 c25 -19 39 -19 39 1 0 5 -4 6 -10 3 -5 -3 -10 -4
-10 -1 0 3 10 10 21 17 17 9 31 8 60 -1 22 -7 39 -17 39 -22 0 -4 6 -8 14 -8
8 0 17 -12 20 -26 14 -53 -68 -86 -166 -67 -27 5 -27 6 -12 34 12 24 12 29 1
29 -16 0 -57 -42 -57 -58 0 -7 -4 -12 -10 -12 -5 0 -10 13 -10 29 0 25 -3 28
-21 24 -12 -4 -24 -15 -27 -25 -3 -14 -11 -18 -26 -14 -11 3 -52 9 -91 12 -38
3 -99 15 -134 25 l-63 19 -33 -29 c-18 -16 -39 -31 -47 -33 -10 -4 -7 -12 11
-31 27 -29 22 -43 -23 -63 -17 -7 -24 -13 -14 -14 10 0 31 -25 53 -65 20 -36
40 -65 44 -65 8 0 -9 -81 -19 -90 -3 -3 -14 -18 -24 -34 -15 -23 -16 -30 -5
-37 8 -5 17 -9 20 -9 18 0 79 -74 79 -96 0 -7 -16 -27 -35 -45 -19 -19 -35
-43 -35 -55 0 -23 -4 -24 -155 -40 -73 -7 -86 -17 -47 -33 17 -7 32 -21 35
-32 5 -18 18 -19 329 -19 l323 0 -83 47 c-45 26 -97 59 -115 74 l-32 26 76 36
c73 34 89 49 89 84 0 8 14 31 31 51 28 32 31 40 25 80 -5 35 -2 50 11 65 13
14 18 36 18 86 l0 66 58 38 57 39 69 -11 c39 -6 102 -11 141 -11 62 0 74 3 95
25 14 13 25 34 25 47 -1 22 -1 22 -12 3 -24 -44 -52 -65 -84 -65 -18 0 -36 5
-39 10 -3 6 1 10 9 10 22 0 20 12 -5 33 -12 11 -18 25 -15 33 3 9 6 20 6 25 0
4 7 6 15 3 8 -4 15 -1 15 4 0 16 -55 37 -125 50 -197 36 -563 73 -510 52z"/>
<path d="M2106 8743 c-4 -5 -35 -8 -69 -8 -51 0 -63 -3 -72 -20 -6 -11 -19
-33 -29 -49 -18 -26 -18 -29 -3 -38 9 -5 17 -18 17 -29 0 -24 23 -71 43 -87
12 -10 15 -5 20 35 3 27 1 55 -3 63 -13 23 8 50 39 50 16 0 31 7 35 15 3 8 12
15 21 15 8 0 15 6 15 14 0 8 3 21 6 30 6 16 -7 22 -20 9z"/>
<path d="M7251 8713 c-12 -11 -24 -35 -28 -58 -6 -37 -34 -75 -55 -75 -19 0
-6 -18 18 -24 17 -5 35 -1 50 9 13 8 36 15 52 15 21 0 39 12 70 47 23 25 40
48 38 51 -3 2 -12 -3 -21 -12 -9 -9 -21 -16 -26 -16 -18 0 -49 20 -49 33 0 7
-7 20 -14 30 -13 17 -14 17 -35 0z"/>
<path d="M742 7943 c-10 -19 -66 -196 -88 -276 l-12 -48 46 3 c43 3 46 5 54
36 9 32 10 33 56 30 43 -3 47 -5 56 -35 8 -31 12 -33 52 -33 29 0 44 4 44 13
0 6 -22 82 -48 167 l-48 155 -51 3 c-42 2 -54 -1 -61 -15z"/>
<path d="M2098 7954 c-5 -4 -8 -81 -8 -172 l0 -164 111 4 c107 3 112 4 135 31
31 37 32 90 2 120 l-23 22 19 35 c24 44 16 83 -21 107 -28 18 -201 32 -215 17z"/>
<path d="M3219 7936 c-47 -32 -72 -87 -72 -156 0 -97 53 -159 143 -168 55 -5
120 20 120 48 0 26 -38 56 -52 42 -16 -16 -70 -15 -94 2 -15 12 -19 27 -19 81
0 83 16 99 87 91 41 -4 50 -2 63 17 21 30 19 34 -15 52 -46 24 -119 19 -161
-9z"/>
<path d="M4730 7791 l0 -171 81 0 c141 0 189 42 189 166 0 122 -45 163 -187
172 l-83 5 0 -172z m160 69 c46 -46 13 -170 -46 -170 -24 0 -24 1 -24 95 0 95
0 95 25 95 14 0 34 -9 45 -20z"/>
<path d="M6007 7924 c-4 -4 -7 -83 -7 -176 l0 -168 115 0 115 0 0 40 0 39 -67
3 c-70 3 -70 3 -64 47 0 6 25 11 54 13 l52 3 0 35 0 35 -55 5 c-36 3 -55 9
-54 18 1 6 2 16 3 22 0 5 29 10 64 12 l62 3 0 35 0 35 -106 3 c-58 1 -108 -1
-112 -4z"/>
<path d="M7343 7924 c-10 -4 -13 -49 -13 -175 l0 -170 48 3 47 3 2 55 c1 30 2
58 2 63 1 4 26 7 56 7 l55 0 0 35 0 35 -55 0 c-48 0 -55 3 -56 20 -1 11 -2 26
-3 33 -1 8 21 14 64 17 l65 5 0 35 0 35 -100 2 c-55 1 -106 -1 -112 -3z"/>
<path d="M8564 7916 c-17 -8 -44 -31 -60 -51 -23 -31 -29 -50 -32 -104 -3 -56
0 -71 20 -100 30 -44 67 -71 109 -80 42 -9 100 1 134 23 23 15 25 22 25 96 l0
80 -65 0 -65 0 0 -34 c0 -28 4 -35 23 -38 14 -2 23 -11 25 -25 3 -20 -1 -23
-31 -23 -48 0 -77 26 -84 76 -11 81 44 136 114 113 30 -10 35 -8 53 13 18 23
18 23 0 42 -25 25 -122 32 -166 12z"/>
<path d="M6302 7143 c-1 -38 -5 -75 -8 -84 -2 -9 2 -19 11 -23 26 -10 12 -126
-16 -126 -4 0 -3 -16 2 -36 14 -47 4 -83 -32 -127 -29 -35 -59 -49 -59 -27 0
11 -59 50 -76 50 -7 0 -9 -23 -7 -67 5 -93 -6 -195 -20 -190 -7 2 -16 31 -22
64 -12 72 -27 93 -68 93 -23 0 -28 -3 -20 -11 14 -14 6 -39 -12 -39 -20 0 -25
-26 -13 -61 7 -22 13 -27 19 -18 8 13 2 -124 -7 -170 l-5 -23 -19 23 c-15 16
-20 37 -20 81 0 105 -45 218 -87 218 -19 0 -16 -27 7 -58 31 -41 33 -88 6
-131 -32 -52 -40 -67 -31 -59 15 14 35 -14 35 -48 0 -18 4 -44 10 -59 10 -27
51 -49 61 -33 4 7 9 7 13 0 7 -11 46 -4 46 8 0 5 23 13 52 20 29 6 55 15 58
21 9 13 40 0 40 -17 0 -25 39 -15 107 26 46 27 78 40 103 40 20 0 39 2 42 5 3
4 -7 36 -23 73 -33 81 -38 164 -19 347 14 132 9 350 -9 384 -22 41 -36 24 -39
-46z"/>
<path d="M3008 7142 c-2 -9 1 -47 6 -84 7 -47 15 -69 25 -73 17 -5 61 -80 61
-102 0 -7 5 -13 10 -13 6 0 10 -6 10 -14 0 -8 6 -16 14 -19 9 -4 15 5 19 30 5
26 0 44 -17 72 -13 21 -41 76 -61 124 -37 84 -61 112 -67 79z"/>
<path d="M8447 7086 c-11 -28 -7 -69 8 -96 23 -40 17 -44 -19 -16 -61 46 -75
25 -31 -44 14 -23 25 -55 25 -74 0 -19 5 -47 12 -61 9 -21 9 -31 0 -46 -17
-26 -15 -31 7 -24 17 5 21 0 27 -30 3 -20 13 -39 21 -42 10 -4 13 -15 9 -37
-3 -17 -1 -44 4 -61 l10 -30 -4 30 c-5 34 1 49 25 57 21 8 39 -10 39 -38 0
-13 6 -29 14 -36 15 -16 5 -46 -21 -61 -44 -26 61 -50 120 -28 36 14 54 -1 38
-31 -7 -13 -11 -28 -10 -34 1 -5 1 -11 0 -14 -2 -3 -4 -20 -7 -38 -2 -19 -14
-48 -27 -65 -24 -35 -24 -35 -26 -72 -1 -16 -7 -25 -17 -25 -15 0 -15 -2 0
-25 14 -22 15 -25 1 -25 -19 0 -19 -10 1 -38 20 -29 34 -28 34 4 l0 25 29 -20
c33 -24 56 -80 47 -116 -3 -13 -1 -25 5 -27 19 -6 -3 -38 -26 -38 -18 0 -25
-8 -33 -41 -10 -38 -9 -41 9 -36 10 3 17 1 13 -4 -3 -5 46 -9 116 -9 120 0
120 0 115 23 -33 144 -34 153 -25 317 5 91 13 179 18 196 23 73 24 149 4 220
-22 74 -19 119 12 199 19 50 21 175 2 219 -25 61 -94 96 -115 59 -10 -18 -71
-28 -71 -11 0 18 -49 58 -71 58 -12 0 -19 -3 -16 -7 4 -3 0 -17 -9 -31 -11
-17 -13 -27 -5 -35 16 -16 13 -35 -9 -57 -11 -11 -17 -26 -14 -35 4 -8 2 -15
-3 -15 -5 0 -10 -24 -12 -52 -1 -29 -4 -61 -7 -71 -3 -10 1 -20 10 -23 10 -4
14 -14 10 -28 -2 -11 -6 -37 -8 -56 -8 -81 -33 -102 -72 -59 -16 18 -19 39
-21 148 -1 69 -3 145 -3 169 -1 43 -4 48 -71 125 -22 26 -27 28 -32 13z"/>
<path d="M7312 7072 c-10 -7 -8 -15 9 -36 20 -25 21 -30 7 -64 -10 -27 -12
-52 -6 -91 5 -32 4 -58 -1 -65 -15 -17 -26 -104 -13 -91 6 6 12 25 14 44 4 48
25 51 33 4 4 -21 9 -46 12 -55 3 -12 -1 -18 -12 -18 -8 0 -18 -7 -21 -15 -18
-45 -62 7 -71 84 -3 28 -10 54 -14 57 -5 3 -9 15 -9 26 0 11 -5 38 -12 59 -9
31 -16 39 -34 39 -21 0 -23 -2 -13 -27 6 -16 20 -38 31 -50 l21 -23 -40 0
c-22 0 -42 -2 -45 -5 -3 -3 11 -23 31 -43 41 -41 62 -106 54 -170 -11 -81 -8
-120 11 -144 11 -13 4 -6 -15 15 -114 127 -139 151 -139 129 0 -12 4 -22 8
-22 5 0 17 -6 27 -14 18 -13 18 -14 1 -42 -10 -16 -28 -37 -40 -46 -20 -16
-19 -17 29 -15 49 2 50 1 53 -28 2 -16 8 -35 13 -41 5 -6 10 -32 10 -57 3 -55
11 -52 60 24 21 33 37 48 46 45 8 -4 19 -6 25 -6 8 0 9 -37 5 -117 -4 -73 -2
-133 4 -158 6 -22 11 -52 10 -67 0 -18 5 -28 14 -28 20 0 19 -19 -6 -75 -23
-51 -21 -62 8 -46 19 10 46 95 34 106 -19 19 -51 242 -51 357 0 33 3 37 22 35
18 -2 28 9 50 52 15 29 36 60 48 68 15 10 18 21 14 39 -3 13 -1 38 6 54 9 23
9 37 -1 67 -7 22 -13 89 -13 160 -1 127 -10 159 -39 134 -12 -9 -18 -7 -30 12
-34 53 -57 66 -85 49z"/>
<path d="M7530 7065 c0 -8 7 -15 16 -15 10 0 12 -4 7 -12 -16 -26 -14 -62 4
-76 17 -12 17 -14 1 -23 -10 -6 -18 -19 -18 -29 0 -10 -5 -22 -10 -25 -6 -4
-9 -41 -8 -91 2 -66 6 -85 18 -89 11 -3 16 -21 18 -63 3 -48 0 -61 -17 -77
-24 -21 -27 -35 -8 -35 36 0 50 -26 54 -103 3 -51 1 -77 -6 -77 -6 0 -11 -9
-11 -20 0 -11 -4 -20 -10 -20 -5 0 -10 -9 -10 -20 0 -11 -7 -20 -15 -20 -8 0
-16 -9 -17 -20 -1 -11 -3 -32 -4 -47 -2 -16 -4 -44 -6 -63 -2 -19 -7 -41 -12
-48 -4 -8 -1 -23 8 -37 17 -26 40 -32 51 -15 7 11 22 -2 43 -38 17 -30 15 -52
-4 -52 -12 0 -15 -6 -10 -24 4 -15 0 -28 -9 -36 -28 -23 -4 -30 102 -30 l106
0 -9 43 c-15 69 -11 402 6 500 11 69 12 96 2 131 -9 36 -8 59 9 137 30 146 34
237 12 278 -10 19 -30 44 -46 55 -25 18 -32 19 -72 8 l-46 -12 -38 40 c-39 41
-71 52 -71 25z"/>
<path d="M2450 7025 c10 -12 9 -15 -4 -15 -16 0 -16 -2 -2 -22 17 -24 21 -68
7 -83 -4 -6 -14 -31 -21 -57 -7 -27 -17 -48 -21 -48 -5 0 -9 -4 -9 -9 0 -6 19
-11 42 -13 39 -3 41 -4 43 -38 3 -43 -22 -118 -48 -147 -21 -24 -44 -32 -31
-11 5 8 -4 9 -32 5 -27 -4 -34 -3 -24 3 13 8 13 10 -1 10 -9 0 -19 9 -22 20
-5 20 -37 29 -37 11 0 -18 -46 -17 -82 2 -50 27 -68 70 -45 110 16 26 16 38 5
110 -10 64 -17 83 -36 95 -12 8 -24 13 -26 11 -3 -2 0 -27 6 -54 5 -28 6 -88
3 -135 -11 -137 -3 -270 17 -270 5 0 8 12 6 27 -5 44 20 38 32 -8 9 -33 9 -44
-2 -50 -31 -20 -57 2 -79 66 -7 22 -19 47 -27 55 -12 13 -16 11 -38 -15 l-24
-30 29 -9 c20 -6 29 -15 29 -30 0 -26 28 -105 47 -129 11 -15 17 -16 34 -7 13
6 21 7 21 1 0 -6 12 -6 32 0 18 5 34 9 36 9 1 0 0 -37 -2 -82 -4 -68 -4 -73 3
-28 4 31 15 78 24 105 9 28 15 65 12 83 -2 17 0 32 5 32 4 0 -1 18 -11 41 -11
22 -18 46 -15 52 2 7 5 4 5 -5 1 -20 17 -24 23 -6 6 17 28 0 39 -30 8 -21 7
-29 -7 -39 -11 -8 -13 -13 -5 -13 9 0 11 -9 6 -30 -7 -33 5 -39 26 -14 7 8 24
21 39 29 14 7 32 26 40 42 22 42 43 55 54 35 5 -9 18 -23 28 -30 34 -25 77
-98 71 -121 -5 -18 -11 -21 -30 -16 -23 5 -23 5 -8 -19 13 -20 14 -26 3 -33
-7 -4 -22 -26 -33 -48 -22 -44 -31 -57 -59 -85 -16 -16 -17 -22 -6 -35 11 -13
7 -15 -29 -15 -49 0 -81 -14 -81 -36 0 -13 8 -14 43 -9 53 9 63 15 46 27 -10
6 -6 7 11 2 14 -4 27 -10 30 -14 3 -4 19 -11 35 -17 23 -8 29 -15 27 -32 -2
-13 2 -30 10 -39 18 -23 49 -80 48 -89 0 -5 23 -9 51 -11 44 -3 51 -1 45 13
-26 68 -39 149 -37 229 2 77 6 97 32 149 42 82 49 154 19 202 -12 19 -35 62
-50 94 -16 33 -34 62 -39 66 -18 10 -34 87 -37 173 -2 71 -6 89 -29 121 -14
21 -37 43 -51 50 -33 15 -39 14 -24 -4z"/>
<path d="M3577 7018 c21 -33 28 -79 23 -141 -3 -37 -4 -70 -1 -73 2 -2 14 -4
26 -4 18 0 24 -7 29 -39 6 -40 -16 -123 -41 -152 -16 -19 -54 -14 -97 12 -18
11 -35 15 -45 10 -68 -35 -144 -4 -149 61 -2 27 2 40 17 50 19 13 19 15 -7 91
-21 61 -32 79 -50 84 -13 3 -25 4 -27 2 -2 -2 5 -29 16 -59 22 -62 32 -195 17
-223 -5 -10 -6 -23 -1 -30 5 -7 10 -25 12 -41 1 -15 11 -52 21 -82 9 -30 14
-54 10 -54 -6 0 -54 78 -55 90 0 3 -9 17 -19 32 l-18 27 -24 -28 c-35 -42 -31
-55 12 -48 33 6 36 4 31 -15 -6 -21 10 -61 45 -110 18 -27 20 -27 43 -12 14 9
32 13 41 10 9 -4 27 0 39 8 23 15 23 15 19 -27 l-4 -42 9 35 c9 31 19 129 20
188 1 26 25 29 47 7 9 -8 12 -15 7 -15 -4 0 -2 -4 6 -9 12 -8 12 -12 -2 -25
-18 -19 -42 -85 -33 -94 4 -3 19 6 34 21 15 15 45 42 67 61 31 27 37 37 28 47
-9 11 -8 18 1 32 16 21 30 22 22 1 -4 -10 4 -21 25 -32 17 -9 49 -34 71 -54
34 -31 39 -41 34 -63 -5 -20 -11 -25 -26 -20 -11 4 -20 2 -20 -3 0 -6 5 -12
11 -14 8 -3 3 -21 -15 -51 -14 -26 -26 -54 -26 -62 0 -7 -15 -29 -32 -48 -18
-19 -32 -42 -30 -51 3 -12 -5 -16 -32 -16 -20 0 -36 -5 -36 -11 0 -5 -4 -8 -9
-5 -5 3 -11 -5 -13 -19 -6 -31 7 -35 49 -14 48 24 73 15 73 -27 0 -32 -2 -34
-35 -34 -19 0 -35 3 -35 8 0 4 -31 8 -68 9 -160 3 -299 60 -392 160 -107 114
-149 233 -156 443 -3 95 -7 127 -18 135 -8 5 -19 6 -23 1 -17 -17 -5 -258 16
-341 41 -155 126 -281 239 -354 78 -50 217 -97 307 -105 44 -3 99 -9 122 -12
l41 -6 7 -69 7 -69 65 67 c35 38 62 60 59 51 -3 -12 -1 -15 10 -11 8 3 14 -1
14 -10 0 -8 7 -18 16 -21 19 -7 104 -8 104 -1 0 3 -14 33 -30 67 -70 144 -78
243 -30 378 42 119 40 133 -27 231 -31 46 -67 97 -80 112 -12 16 -23 35 -23
43 0 8 -8 31 -19 52 -10 20 -22 55 -26 77 -10 56 -44 112 -81 135 -36 23 -70
27 -57 8z"/>
<path d="M5278 7018 c-4 -9 -32 -33 -63 -52 -30 -20 -85 -59 -120 -87 -40 -31
-69 -48 -77 -43 -7 4 -10 4 -6 -1 9 -9 -90 -74 -114 -75 -9 0 -19 -4 -22 -8
-2 -4 -38 -24 -78 -44 -65 -32 -93 -43 -150 -62 -15 -4 -15 -8 -3 -33 32 -64
56 -218 41 -263 -10 -32 -9 -36 20 -66 64 -63 66 -92 11 -141 -18 -16 -34 -38
-35 -48 -2 -11 -8 -21 -13 -23 -5 -2 -9 -9 -9 -16 0 -14 -57 -41 -107 -51 -33
-7 -42 -18 -23 -30 6 -3 10 -19 10 -35 0 -22 6 -31 23 -35 12 -3 128 -4 257
-3 l235 3 -60 42 c-33 23 -87 66 -120 96 -60 54 -60 55 -41 76 11 12 31 21 47
21 43 0 139 41 156 67 13 19 13 28 3 54 -10 23 -10 33 -1 42 12 12 15 76 3 93
-4 6 -29 22 -56 36 l-49 25 84 6 c46 4 148 7 227 7 83 0 141 4 138 9 -3 5 -24
7 -46 4 -56 -8 -54 19 7 70 21 19 22 18 38 -12 8 -17 20 -31 26 -31 6 0 3 7
-5 16 -21 20 -20 41 1 53 10 5 15 12 12 16 -4 3 -76 10 -160 16 -203 13 -222
16 -216 37 3 9 10 31 15 48 7 24 6 39 -6 64 -9 19 -12 34 -6 38 183 128 248
187 242 218 -3 17 -4 17 -10 2z m-423 -423 c25 -30 31 -29 49 10 3 6 19 -6 35
-25 17 -19 31 -30 31 -25 0 6 5 3 10 -5 9 -13 10 -13 11 0 0 8 4 4 8 -10 5
-17 1 -30 -13 -44 -29 -29 -54 -30 -92 -1 -34 26 -54 32 -54 16 0 -14 -62 -11
-87 5 -12 8 -29 14 -37 14 -19 0 -29 29 -11 36 8 3 17 15 20 26 15 44 94 46
130 3z m350 7 c6 -4 15 -16 21 -27 6 -11 21 -21 33 -23 29 -5 27 -26 -4 -40
-14 -7 -36 -17 -49 -23 -15 -7 -40 -9 -63 -5 -47 9 -52 9 -82 0 l-25 -7 22 23
c24 26 28 40 12 40 -5 0 -10 15 -10 33 l0 34 68 1 c37 1 72 -2 77 -6z"/>
<path d="M2262 7003 c-6 -3 -9 -9 -6 -15 4 -7 9 -7 13 0 3 6 7 -32 8 -84 2
-94 2 -94 -28 -116 -31 -24 -39 -41 -13 -31 13 5 15 2 9 -15 -4 -13 -2 -22 4
-22 6 0 11 -7 11 -15 0 -8 5 -15 10 -15 6 0 10 9 10 20 0 16 5 19 23 15 15 -4
29 0 40 13 16 17 16 22 2 48 -11 21 -13 45 -9 91 5 49 3 68 -10 87 -18 29 -45
45 -64 39z"/>
<path d="M3400 6990 c0 -6 6 -21 14 -33 7 -12 16 -44 19 -72 4 -27 8 -60 11
-73 3 -13 1 -20 -5 -17 -5 4 -9 -1 -9 -10 0 -8 -10 -20 -22 -25 -18 -7 -19 -9
-5 -9 10 -1 17 -9 17 -21 0 -11 4 -20 9 -20 12 0 24 37 16 50 -3 5 1 10 9 10
9 0 16 -9 16 -20 0 -11 4 -20 8 -20 13 0 43 36 36 43 -3 3 -12 47 -19 97 -11
73 -19 95 -37 110 -25 21 -58 26 -58 10z"/>
<path d="M1390 6826 c17 -21 3 -93 -20 -106 -23 -12 -81 -14 -62 -1 10 6 8 13
-12 27 -18 13 -27 30 -29 51 -2 35 -19 29 -21 -8 -2 -32 -48 -63 -81 -55 -14
4 -23 11 -20 16 3 5 1 11 -4 14 -5 3 -11 -1 -15 -9 -4 -12 -25 -15 -95 -15
-56 0 -92 4 -97 11 -5 8 -9 7 -15 -4 -14 -24 -263 -30 -318 -8 -17 8 -34 11
-38 7 -16 -15 70 -35 149 -35 248 3 243 3 240 -14 -4 -24 25 -21 38 4 10 18
18 20 63 14 99 -12 227 -38 227 -47 0 -4 -4 -8 -10 -8 -5 0 -10 -24 -10 -54
l0 -53 -42 -11 c-24 -6 -61 -14 -83 -19 -30 -5 -7 -9 100 -14 77 -3 160 -9
185 -12 l45 -7 -40 14 c-22 8 -57 15 -77 15 -33 1 -38 4 -38 25 0 19 -4 23
-20 19 -17 -5 -20 0 -20 30 0 46 9 67 27 67 13 0 13 3 3 15 -11 13 -7 15 23
15 20 0 48 -5 62 -10 17 -7 32 -7 43 0 14 7 10 9 -15 10 -39 0 -41 7 -8 39 14
13 25 29 25 37 0 22 -22 63 -38 69 -12 4 -13 3 -2 -9z"/>
<path d="M8270 6822 c0 -5 11 -19 25 -32 14 -13 25 -30 25 -37 0 -8 5 -11 12
-7 6 4 8 3 5 -3 -4 -6 -1 -23 5 -40 9 -24 7 -41 -11 -97 -21 -65 -21 -69 -5
-94 11 -16 18 -48 19 -79 0 -29 3 -55 6 -58 3 -3 20 11 38 31 27 29 39 35 63
32 26 -4 32 -1 43 25 12 28 10 35 -12 71 -14 22 -33 56 -42 75 -21 46 -89 155
-119 192 -22 27 -52 39 -52 21z"/>
<path d="M892 6545 c-18 -20 -27 -23 -54 -18 -18 3 -37 10 -42 14 -21 19 -216
-5 -223 -28 -2 -6 5 -20 16 -30 20 -19 20 -22 6 -70 -8 -28 -22 -56 -30 -63
-21 -17 -19 -27 7 -36 12 -3 28 -13 36 -20 7 -8 21 -14 31 -14 19 0 51 -29 51
-47 0 -13 -43 -53 -58 -53 -6 0 -18 -13 -27 -30 -8 -16 -28 -38 -43 -47 -15
-10 -29 -21 -32 -25 -3 -4 -20 -8 -38 -10 -43 -3 -40 -21 6 -42 33 -15 80 -16
427 -14 l390 3 -85 34 c-127 50 -320 148 -320 162 0 5 6 12 14 16 8 4 33 26
56 47 40 37 42 41 36 82 -4 30 -1 45 9 54 9 8 15 30 15 56 0 32 4 44 15 44 8
0 15 5 15 11 0 8 -19 9 -61 4 -50 -6 -61 -5 -57 6 3 8 14 15 26 17 39 6 23 22
-21 22 -34 0 -48 -6 -65 -25z"/>
<path d="M6673 6560 c17 -11 24 -60 8 -60 -5 0 -12 -11 -15 -25 -4 -14 -13
-25 -22 -25 -8 0 -17 -7 -21 -16 -6 -16 -71 -82 -115 -118 -12 -10 -31 -25
-40 -33 -15 -13 -18 -11 -35 19 l-18 33 -5 -40 c-4 -31 -10 -40 -29 -45 -13
-3 -31 -19 -40 -35 -9 -17 -20 -31 -24 -32 -5 -1 -17 -13 -28 -27 -10 -13 -33
-27 -49 -31 -17 -4 -30 -10 -30 -15 0 -4 -11 -18 -24 -31 -13 -13 -22 -29 -19
-36 5 -13 -12 -17 -49 -14 -10 1 -18 -2 -18 -8 0 -5 12 -11 27 -13 25 -3 27
-7 29 -50 1 -26 5 -52 9 -58 3 -5 42 -10 87 -10 72 0 79 2 73 18 -4 9 -15 41
-23 70 -19 64 -12 79 58 137 75 62 132 118 200 199 64 76 106 104 233 155 30
12 36 45 13 76 -10 15 -29 20 -82 22 -53 3 -65 1 -51 -7z"/>
<path d="M634 5797 c-2 -7 -3 -85 -2 -172 l3 -160 43 -3 42 -3 0 70 0 71 50 0
49 0 3 -67 3 -68 45 0 45 0 0 170 0 170 -45 0 -45 0 -3 -62 -3 -63 -49 0 -50
0 0 65 0 65 -40 0 c-24 0 -43 -5 -46 -13z"/>
<path d="M4620 5620 l0 -170 45 0 c45 0 45 0 45 35 0 41 19 87 34 82 6 -2 25
-28 41 -58 30 -53 32 -54 79 -57 58 -4 58 -8 -14 114 l-50 85 30 42 c16 23 39
54 51 70 l21 27 -51 0 -50 0 -43 -62 -43 -63 -3 63 -3 62 -44 0 -45 0 0 -170z"/>
<path d="M2373 5773 c-10 -3 -13 -48 -13 -174 l0 -169 45 0 45 0 0 170 c0 94
-3 171 -7 171 -34 5 -60 6 -70 2z"/>
<path d="M3623 5773 c-10 -3 -13 -37 -13 -123 0 -94 -3 -122 -16 -134 -19 -20
-25 -20 -50 -2 -16 12 -22 12 -46 -2 -16 -9 -28 -19 -28 -22 0 -15 58 -58 84
-63 41 -7 89 9 117 39 23 24 24 34 27 165 2 76 0 140 -5 141 -23 4 -59 4 -70
1z"/>
<path d="M6068 5772 l-28 -3 0 -170 0 -169 111 0 110 0 -3 38 -3 37 -62 3 -63
3 0 128 c0 141 0 141 -62 133z"/>
<path d="M7280 5605 l0 -175 41 0 41 0 -4 100 c-2 54 -3 98 -2 97 2 -1 16 -38
32 -82 24 -69 32 -80 54 -83 24 -3 28 3 54 75 l29 78 3 -92 3 -93 40 0 39 0
-2 173 -3 172 -24 3 c-51 8 -67 -5 -90 -70 -12 -35 -27 -76 -34 -92 l-11 -29
-18 42 c-9 23 -25 63 -33 88 -19 56 -28 63 -77 63 l-38 0 0 -175z"/>
<path d="M8558 5773 l-28 -4 0 -170 0 -169 46 0 47 0 -6 100 c-3 55 -2 98 2
96 4 -3 27 -48 52 -100 l44 -96 48 0 47 0 -2 173 -3 172 -37 1 c-45 2 -47 -5
-42 -123 l4 -88 -53 105 c-55 109 -59 113 -119 103z"/>
<path d="M4646 5114 c-3 -9 -3 -21 1 -26 4 -7 1 -8 -6 -4 -8 5 -11 3 -10 -5 5
-25 -12 -61 -26 -55 -8 3 -30 8 -50 12 -36 6 -36 6 -23 -15 7 -11 15 -21 18
-21 3 0 6 -9 7 -21 3 -40 44 -109 69 -115 13 -3 25 -10 25 -15 2 -16 5 -23 18
-64 10 -28 11 -40 2 -43 -6 -2 -11 -14 -11 -27 0 -17 8 -26 31 -34 17 -6 35
-9 39 -6 5 3 11 -8 15 -25 4 -16 11 -32 16 -35 14 -9 11 -25 -5 -25 -8 0 -16
-7 -20 -15 -3 -8 -17 -20 -31 -25 -28 -10 -33 -35 -10 -44 8 -3 12 -12 9 -20
-4 -10 13 -34 45 -65 34 -35 49 -57 46 -71 -2 -13 2 -20 11 -20 8 0 14 -9 14
-19 0 -11 6 -26 13 -33 8 -7 17 -27 21 -43 4 -17 9 -39 13 -49 4 -15 1 -18
-16 -13 -24 6 -28 -5 -7 -22 15 -13 16 -158 0 -169 -5 -4 -9 -11 -10 -17 -3
-23 -17 -55 -25 -55 -5 0 -9 -9 -9 -19 0 -11 -5 -21 -12 -23 -6 -2 -11 -18
-10 -36 0 -25 -4 -32 -18 -32 -12 0 -19 -10 -23 -32 -6 -42 1 -58 20 -51 30
12 2 -17 -30 -31 l-32 -14 33 -1 c24 -1 35 -7 42 -23 l9 -23 0 22 c1 13 10 28
21 35 25 16 25 25 0 33 -25 8 -15 29 10 22 11 -3 21 1 24 9 6 16 62 19 71 4 4
-6 7 -30 8 -54 1 -28 6 -42 13 -39 7 2 12 -6 12 -20 0 -44 39 -84 89 -91 25
-3 49 -4 53 -1 9 6 -3 54 -24 95 -23 43 -35 119 -51 314 -20 234 -27 270 -65
346 -17 33 -41 88 -54 123 -43 113 -50 126 -68 130 -18 5 -26 27 -9 27 21 0 1
73 -40 147 -43 78 -43 79 -51 210 -6 125 -16 168 -42 185 -17 11 -23 10 -30
-8z"/>
<path d="M8103 5116 c4 -9 2 -16 -4 -16 -6 0 -7 -5 -3 -12 4 -7 7 -45 5 -86
-2 -67 0 -74 18 -79 25 -6 38 -49 46 -158 4 -44 10 -82 13 -85 4 -3 8 -18 10
-33 3 -33 -35 -157 -49 -157 -4 0 -5 -8 -2 -17 6 -16 5 -16 -10 -4 -25 20 -32
6 -9 -17 18 -18 18 -19 0 -41 -13 -17 -24 -22 -42 -17 -21 5 -25 2 -28 -21 -2
-16 0 -53 4 -83 4 -30 5 -67 2 -82 -4 -21 -2 -28 10 -28 12 0 16 -10 16 -42 0
-60 19 -126 31 -107 5 8 9 25 10 39 1 25 1 24 14 -5 20 -43 18 -52 -10 -59
-33 -8 -32 -21 3 -22 15 0 35 -4 44 -8 23 -11 42 28 68 145 25 110 39 149 52
149 6 0 8 10 4 23 -4 14 4 43 22 79 25 52 42 72 42 49 0 -5 20 -30 45 -55 47
-46 73 -96 80 -147 4 -33 5 -32 -32 -18 l-28 10 23 -21 c17 -17 22 -29 17 -47
-3 -14 -8 -45 -10 -71 -3 -25 -12 -53 -20 -62 -9 -10 -13 -23 -11 -31 8 -22
-9 -84 -22 -82 -6 2 -9 -4 -6 -12 4 -9 1 -22 -6 -30 -7 -8 -9 -15 -5 -15 4 0
2 -6 -4 -14 -6 -8 -11 -18 -10 -22 5 -23 -30 -74 -51 -74 -6 0 -18 -7 -26 -15
-13 -12 -12 -15 6 -25 13 -7 26 -8 33 -2 17 13 138 45 145 38 3 -3 1 -6 -5 -6
-13 0 7 -80 24 -98 7 -7 13 -20 13 -28 0 -16 29 -65 45 -76 5 -4 36 -8 69 -8
45 0 56 3 49 13 -6 6 -16 30 -23 52 -7 22 -19 49 -26 60 -27 44 -37 134 -39
360 -1 146 -6 240 -13 258 -7 15 -35 62 -64 103 -29 42 -60 87 -69 101 -9 13
-22 64 -28 112 -30 239 -150 576 -169 477 -3 -13 0 -16 10 -10 11 6 11 5 0 -8
-9 -11 -10 -23 -3 -41 7 -16 6 -28 -2 -36 -8 -8 -8 -11 1 -11 8 0 11 -10 8
-26 -4 -20 0 -27 14 -31 28 -7 43 -68 29 -116 -7 -27 -7 -42 0 -51 6 -7 8 -16
4 -19 -3 -4 3 -10 13 -14 27 -10 34 -23 34 -70 0 -30 -6 -49 -20 -63 -11 -11
-15 -22 -10 -25 15 -9 12 -69 -5 -91 -10 -12 -14 -14 -13 -4 2 8 -5 15 -17 16
-11 0 -30 4 -42 8 -20 6 -21 10 -12 29 7 12 17 25 24 29 10 6 9 23 0 80 -7 40
-18 116 -24 168 -12 97 -51 260 -76 317 -15 34 -64 71 -52 39z"/>
<path d="M935 4851 c5 -17 2 -18 -32 -11 l-37 9 30 -24 c16 -14 37 -27 47 -31
14 -4 16 -9 6 -20 -14 -17 -100 -19 -116 -3 -8 8 -24 4 -61 -16 -27 -15 -64
-28 -83 -29 -48 -4 -49 -5 -49 -19 0 -15 -38 -57 -85 -93 -30 -23 -34 -29 -21
-36 13 -8 14 -13 4 -31 -7 -12 -13 -24 -13 -27 -6 -22 -27 -59 -44 -77 -16
-17 -19 -27 -12 -40 13 -24 43 -151 38 -161 -8 -13 12 -52 28 -52 10 0 15 -10
16 -27 2 -81 10 -156 18 -171 9 -18 15 -92 13 -151 -2 -26 -12 -44 -42 -72
-22 -21 -40 -43 -40 -48 0 -19 20 -21 56 -6 49 20 59 19 61 -7 1 -13 11 -29
23 -37 11 -7 20 -22 20 -32 0 -18 10 -19 138 -19 l139 0 -18 54 c-10 30 -19
84 -20 119 -2 67 -2 67 77 207 11 19 26 55 34 80 8 25 23 62 33 83 11 21 21
57 22 80 2 23 13 80 25 127 19 74 22 105 18 241 -3 117 -7 161 -18 174 -8 9
-39 29 -70 43 -96 45 -92 44 -85 23z m21 -216 c-3 -12 -10 -53 -16 -91 -10
-70 -36 -183 -42 -190 -2 -1 -42 0 -88 4 l-85 7 -3 48 c-2 27 4 67 12 90 9 23
17 55 18 72 2 24 12 34 50 55 26 14 49 27 52 30 2 3 28 3 56 1 48 -3 51 -5 46
-26z"/>
<path d="M7005 4833 c2 -15 9 -43 14 -60 12 -41 0 -42 -37 -2 -25 26 -39 32
-83 35 -37 3 -48 1 -34 -5 11 -4 26 -6 34 -3 10 4 13 1 8 -11 -3 -9 -3 -17 1
-17 15 0 32 -66 32 -122 0 -49 -4 -61 -32 -92 -17 -20 -35 -36 -40 -36 -10 0
-53 84 -68 138 -9 30 -19 42 -32 42 -10 0 -18 -4 -18 -10 0 -5 3 -10 8 -10 11
0 32 -75 32 -118 0 -22 7 -53 16 -70 14 -29 14 -33 0 -48 -9 -8 -16 -24 -16
-34 0 -10 -9 -25 -21 -33 -18 -13 -19 -18 -9 -37 6 -12 10 -24 7 -26 -15 -15
-96 178 -97 228 0 18 -50 58 -72 58 -7 -1 1 -13 19 -28 42 -36 55 -72 37 -97
-8 -10 -14 -27 -14 -36 0 -10 -9 -24 -21 -33 -19 -13 -20 -17 -8 -53 7 -21 17
-42 21 -47 14 -18 8 -43 -14 -58 -20 -13 -16 -14 43 -10 54 4 62 3 52 -9 -8
-10 -9 -20 -3 -29 6 -8 10 -25 10 -37 0 -25 19 -30 38 -11 8 8 15 8 27 -2 8
-7 19 -9 23 -5 4 4 1 10 -6 12 -17 7 34 55 82 78 20 10 36 21 36 25 0 28 104
125 164 154 17 8 24 16 17 20 -17 11 -13 30 12 59 21 24 24 25 67 13 91 -24
125 -60 91 -97 -15 -17 -23 -19 -39 -10 -38 21 -47 11 -15 -17 25 -23 29 -31
21 -46 -6 -10 -17 -42 -24 -69 -10 -39 -10 -54 -1 -65 9 -11 8 -17 -4 -26 -11
-7 -15 -25 -13 -56 1 -31 -3 -48 -13 -56 -9 -6 -16 -25 -15 -42 0 -23 -3 -29
-14 -25 -9 3 -14 -1 -14 -11 0 -9 -7 -19 -16 -23 -12 -4 -5 -11 25 -25 42 -19
50 -35 29 -56 -9 -9 -8 -12 4 -12 22 0 28 -24 23 -81 -3 -33 0 -50 10 -59 8
-7 12 -16 9 -21 -6 -10 22 -92 43 -125 7 -11 10 -24 6 -27 -3 -4 1 -7 10 -7 9
0 17 -4 17 -10 0 -6 29 -10 66 -10 77 0 75 -12 18 125 -38 88 -38 93 -42 240
-3 115 0 165 12 212 18 69 21 228 5 270 -5 15 -28 58 -50 94 l-39 65 11 60
c20 107 -8 229 -57 248 -20 8 -89 8 -97 0 -3 -3 0 -19 7 -36 10 -23 10 -37 1
-64 -6 -18 -14 -37 -18 -40 -13 -13 -7 -34 9 -34 12 0 14 -3 6 -13 -7 -8 -6
-18 4 -31 19 -27 18 -55 -3 -63 -10 -4 -21 -10 -24 -15 -9 -14 -35 1 -48 28
-15 33 -14 149 1 191 11 29 9 36 -9 60 -29 39 -53 42 -48 6z"/>
<path d="M5755 4810 c-4 -6 -3 -10 2 -9 4 1 17 1 28 0 15 -1 17 -3 7 -10 -12
-7 -12 -11 0 -22 11 -10 13 -23 7 -47 -6 -27 -4 -33 9 -31 41 4 52 -1 52 -25
0 -17 9 -28 29 -37 15 -7 38 -27 50 -44 11 -17 29 -40 38 -51 26 -28 46 -83
48 -135 1 -26 6 -52 10 -59 6 -9 -2 -11 -28 -8 l-36 4 25 -24 c28 -28 30 -40
9 -48 -10 -4 -12 -11 -7 -21 9 -15 4 -73 -7 -73 -3 0 -6 -15 -7 -32 -3 -86
-16 -142 -39 -170 -28 -33 -31 -48 -11 -48 19 0 40 -26 26 -35 -19 -11 -11
-35 13 -35 33 0 44 -11 58 -59 7 -24 28 -73 47 -110 19 -36 42 -80 51 -98 15
-30 20 -32 65 -33 l49 0 -6 39 c-3 22 -17 65 -31 96 -37 77 -56 241 -56 480 0
169 -3 195 -21 235 -11 24 -27 53 -36 62 -12 13 -16 38 -15 95 1 135 -30 205
-101 232 -35 13 -50 6 -38 -17 5 -9 11 -32 14 -50 4 -25 1 -35 -15 -43 -24
-13 -70 14 -66 39 2 18 -27 69 -52 89 -18 15 -57 17 -65 3z"/>
<path d="M3565 4710 c-11 -5 -14 -9 -6 -9 11 -1 12 -13 7 -57 -4 -39 -3 -61 6
-72 7 -8 14 -45 15 -81 1 -36 5 -88 7 -116 3 -27 1 -65 -5 -82 -6 -18 -12 -57
-15 -88 -4 -44 -1 -55 11 -55 8 0 15 -4 15 -10 0 -5 8 -10 17 -10 9 0 13 -3
10 -6 -4 -4 3 -20 15 -36 23 -33 30 -127 10 -151 -8 -10 -6 -22 9 -47 17 -27
19 -38 10 -57 -15 -32 -14 -43 4 -43 8 0 15 -7 15 -15 0 -8 5 -15 10 -15 6 0
15 -12 20 -26 8 -21 6 -31 -15 -58 -31 -41 -31 -44 3 -48 16 -2 27 -9 27 -18
0 -11 16 -17 60 -21 79 -9 205 -11 205 -3 0 3 -16 39 -35 79 -52 107 -114 291
-121 355 -3 30 -10 69 -15 87 -6 17 -14 116 -18 220 -9 211 -16 237 -88 304
-29 28 -130 92 -137 88 0 0 -10 -4 -21 -9z"/>
<path d="M3405 4680 c-16 -4 -42 -5 -57 -2 -27 4 -28 3 -28 -34 0 -22 12 -66
26 -99 14 -33 30 -82 35 -108 6 -27 19 -63 29 -80 44 -73 52 -100 41 -138 -6
-21 -8 -44 -5 -54 7 -18 -50 -85 -73 -85 -20 0 -72 78 -79 119 -26 158 -75
281 -111 281 -16 0 -16 -7 6 -145 6 -38 16 -83 22 -98 18 -44 4 -127 -26 -154
-24 -23 -25 -23 -43 -5 -17 17 -44 110 -68 232 -7 35 -7 34 -20 -25 -7 -33
-18 -86 -24 -118 -7 -32 -18 -61 -26 -64 -24 -9 -15 -22 34 -47 73 -37 127
-49 154 -34 13 7 49 11 82 9 32 -1 71 3 85 9 22 9 36 7 75 -10 26 -11 59 -20
72 -20 23 0 24 -3 26 -82 3 -119 2 -160 -7 -185 -6 -18 0 -29 31 -57 21 -20
42 -32 45 -28 13 14 -9 258 -39 432 -36 206 -81 368 -128 460 -40 79 -41 86
-12 117 12 13 20 22 17 22 -2 -1 -17 -5 -34 -9z"/>
<path d="M5473 4653 c4 -3 2 -12 -4 -19 -6 -7 -17 -39 -24 -71 -16 -70 -5
-146 26 -179 24 -25 22 -38 -10 -83 -21 -30 -22 -33 -5 -28 11 3 34 8 52 12
l32 7 0 -45 c0 -24 5 -59 11 -78 6 -19 13 -40 15 -48 4 -11 10 -9 28 8 21 20
24 20 36 6 8 -10 23 -15 37 -12 13 2 23 -1 24 -7 0 -6 0 -45 0 -86 -1 -41 4
-82 10 -90 8 -11 9 -5 5 27 -6 39 -2 77 24 247 7 41 17 68 35 86 14 14 25 31
25 37 0 17 41 64 51 58 18 -12 8 22 -12 41 -18 17 -20 26 -15 74 6 50 5 53 -8
35 -9 -11 -16 -16 -16 -12 0 5 -7 2 -15 -6 -8 -9 -24 -13 -36 -10 -17 5 -20 3
-14 -8 7 -12 6 -12 -7 -1 -11 9 -28 10 -65 3 -27 -6 -58 -9 -69 -7 -18 3 -35
37 -48 98 -7 32 -31 58 -53 58 -9 0 -13 -3 -10 -7z"/>
<path d="M2866 4607 c-7 -30 -111 -93 -169 -102 -23 -4 -75 -18 -115 -31 -40
-13 -91 -24 -114 -24 -46 0 -118 -19 -118 -31 0 -4 -8 -8 -17 -8 -10 0 -35 -1
-55 -2 -35 -1 -105 30 -148 66 -18 16 -114 45 -146 45 -22 0 -22 -1 -8 -30 9
-16 22 -30 30 -30 8 0 17 -7 20 -15 4 -8 10 -15 15 -15 14 0 219 -209 219
-224 0 -3 5 -17 12 -33 6 -15 12 -30 12 -33 1 -3 18 -31 39 -62 22 -33 37 -66
35 -79 -3 -18 -7 -15 -35 23 -84 114 -107 140 -187 208 -47 41 -86 76 -86 79
0 7 -49 59 -79 84 -22 18 -77 23 -99 9 -11 -8 -19 -102 -11 -128 2 -5 -10 -24
-27 -42 -41 -40 -52 -93 -27 -127 10 -13 25 -27 33 -31 24 -10 90 -90 95 -115
3 -13 9 -25 15 -27 5 -2 10 -11 10 -21 0 -10 15 -34 33 -55 31 -34 36 -36 62
-26 15 6 41 22 57 35 16 14 36 25 43 25 20 0 62 54 75 97 7 21 16 42 20 46 6
7 59 -78 121 -193 14 -25 31 -45 39 -46 31 -2 35 -5 20 -14 -13 -8 -12 -10 3
-10 10 0 16 -4 13 -9 -6 -8 15 -21 34 -21 18 0 40 33 40 61 0 17 -29 111 -65
209 -36 98 -65 183 -65 187 0 4 25 25 56 46 30 22 67 57 81 79 24 35 25 43 15
71 -6 17 -11 31 -9 32 1 1 58 17 127 34 69 18 140 40 158 48 43 20 72 59 72
94 0 35 -16 38 -24 6z"/>
<path d="M4370 4440 c37 -15 53 -47 50 -99 -7 -129 -5 -150 15 -165 17 -12 18
-18 8 -35 -10 -16 -9 -29 4 -65 10 -25 21 -46 25 -46 4 0 8 -7 8 -15 0 -14 3
-14 24 0 19 13 25 13 29 3 9 -25 31 11 29 47 -2 31 0 35 21 35 13 0 28 -5 34
-11 15 -15 28 11 38 71 4 25 14 58 22 74 14 27 14 32 -2 58 -11 18 -15 39 -11
54 6 22 4 25 -14 19 -13 -4 -20 -2 -20 6 0 10 -3 10 -11 2 -11 -11 -20 -10
-59 4 -8 4 -23 5 -33 4 -10 -1 -39 11 -66 28 -26 17 -63 33 -82 36 -31 5 -31
4 -9 -5z"/>
<path d="M7899 4392 c31 -27 33 -31 26 -73 -4 -24 -11 -60 -17 -81 -9 -31 -8
-40 11 -66 28 -39 27 -45 -10 -76 -17 -14 -29 -26 -27 -26 2 0 21 7 43 15 63
22 76 20 70 -13 -6 -38 34 -89 61 -77 10 4 22 7 26 7 5 -1 -1 22 -12 51 -12
28 -38 104 -59 167 -46 138 -61 171 -72 164 -5 -3 -19 4 -31 15 -12 12 -27 21
-32 21 -6 0 4 -13 23 -28z"/>
<path d="M1830 3966 c0 -15 -3 -16 -15 -6 -13 11 -19 9 -34 -9 -10 -11 -24
-21 -31 -21 -7 0 -10 -7 -6 -16 4 -9 2 -22 -3 -28 -5 -6 -10 -14 -11 -18 -3
-18 -56 -68 -72 -68 -27 0 -29 -14 -8 -53 11 -20 20 -48 20 -62 0 -14 9 -34
20 -45 18 -18 33 -20 183 -20 l164 0 -43 108 c-24 59 -44 117 -44 128 0 12
-12 29 -27 39 -15 10 -42 34 -60 54 -26 28 -33 32 -33 17z"/>
<path d="M644 3496 c-66 -29 -104 -124 -84 -212 14 -63 34 -89 86 -115 53 -25
117 -20 160 13 61 49 82 164 43 244 -34 71 -128 103 -205 70z m110 -85 c38
-42 29 -148 -15 -172 -49 -26 -95 25 -93 103 2 76 65 116 108 69z"/>
<path d="M3524 3491 c-106 -49 -113 -255 -11 -309 17 -9 47 -34 66 -56 42 -45
85 -66 138 -66 50 0 62 9 56 41 -4 23 -11 27 -50 32 -59 6 -75 22 -45 43 62
43 89 105 78 183 -17 121 -124 183 -232 132z m116 -76 c20 -25 30 -87 19 -127
-15 -58 -69 -77 -105 -37 -26 29 -26 129 0 158 22 24 68 28 86 6z"/>
<path d="M1770 3330 l0 -170 45 0 45 0 0 55 0 55 35 0 c74 0 132 42 141 101 8
47 -9 85 -48 109 -27 16 -51 20 -125 20 l-93 0 0 -170z"/>
<path d="M5793 3460 c-38 -23 -53 -48 -53 -90 0 -50 17 -70 87 -101 47 -22 63
-34 61 -47 -4 -23 -49 -27 -88 -7 -30 15 -32 15 -50 -7 -29 -34 -21 -51 35
-71 86 -30 164 -7 190 56 27 65 -2 111 -90 145 -78 31 -67 81 12 53 32 -12 36
-11 51 11 24 33 22 41 -18 60 -46 23 -97 23 -137 -2z"/>
<path d="M4640 3300 l0 -170 45 0 45 0 0 59 c0 52 2 59 18 54 10 -2 31 -29 45
-59 l27 -54 51 0 51 0 -36 65 -35 65 24 26 c19 20 25 38 25 71 0 89 -36 113
-170 113 l-90 0 0 -170z"/>
<path d="M6910 3436 c0 -34 1 -35 43 -38 l42 -3 3 -132 3 -133 44 0 44 0 3
133 3 132 43 3 c41 3 42 4 42 38 l0 34 -135 0 -135 0 0 -34z"/>
<path d="M8184 3445 c-4 -8 -4 -66 -2 -128 6 -162 37 -207 143 -207 62 0 103
23 122 68 15 36 27 240 16 269 -3 8 -22 13 -44 13 l-39 0 0 -115 c0 -110 -1
-117 -25 -140 -28 -29 -34 -30 -61 -11 -17 13 -19 29 -22 140 l-4 126 -39 0
c-26 0 -42 -5 -45 -15z"/>
<path d="M2263 2644 c2 -25 1 -62 -4 -82 -6 -30 -4 -40 12 -55 14 -13 19 -31
19 -72 0 -30 -5 -55 -11 -57 -8 -3 -8 -14 0 -43 12 -45 15 -168 4 -179 -4 -4
-8 -32 -9 -62 -2 -64 -7 -72 -29 -50 -9 9 -13 16 -8 16 4 0 -4 6 -18 14 -19 9
-40 11 -68 6 -29 -5 -46 -3 -58 6 -17 13 -17 15 -1 27 15 12 14 21 -11 118
-39 147 -168 399 -205 399 -10 0 -11 -14 -4 -61 9 -72 13 -79 39 -79 10 0 19
-6 19 -13 0 -7 9 -30 21 -51 11 -22 22 -49 24 -60 1 -12 5 -28 8 -36 3 -8 11
-33 18 -55 6 -22 16 -43 21 -46 6 -4 7 -14 1 -25 -5 -11 -8 -43 -8 -72 2 -65
-12 -75 -56 -38 -17 14 -37 26 -45 26 -19 0 -18 -35 2 -65 12 -19 15 -41 12
-90 -4 -53 -2 -65 9 -61 33 13 119 36 125 33 4 -1 13 5 20 14 17 20 89 74 109
81 25 9 47 -24 44 -68 -3 -67 -15 -106 -31 -100 -8 3 -14 1 -14 -4 0 -6 -18
-10 -40 -10 -23 0 -58 -9 -80 -20 -22 -11 -48 -20 -58 -20 -36 0 -42 -21 -21
-80 10 -30 19 -56 19 -57 0 -2 4 -3 10 -3 5 0 7 13 4 30 -4 19 -2 30 5 30 6 0
11 -5 11 -11 0 -6 7 -17 15 -26 22 -22 14 -37 -22 -41 -27 -3 -33 2 -53 40
-12 24 -31 59 -42 78 -11 19 -39 67 -61 105 -53 91 -56 95 -73 88 -9 -3 -11
-10 -5 -20 5 -9 2 -32 -6 -56 -8 -23 -13 -54 -10 -70 2 -19 0 -24 -7 -17 -15
15 -46 12 -46 -4 0 -24 26 -39 49 -26 17 9 27 6 51 -12 34 -25 36 -35 16 -83
-8 -19 -13 -35 -11 -35 2 0 26 14 52 30 59 37 67 37 60 0 -4 -16 -3 -30 2 -30
5 0 12 -12 16 -27 3 -16 14 -36 22 -45 17 -19 53 -24 53 -8 0 5 13 7 31 3 31
-6 31 -5 24 26 -5 24 -2 36 14 54 12 12 27 31 35 42 13 19 15 18 22 -19 6 -36
8 -38 20 -21 8 10 14 40 14 66 0 55 8 63 44 49 17 -6 26 -6 26 1 0 5 -7 12
-15 15 -16 6 -19 46 -6 79 7 17 8 17 15 -8 3 -15 11 -27 16 -27 6 0 10 -8 11
-17 0 -11 3 -13 6 -5 9 22 26 13 75 -39 54 -57 58 -69 26 -69 l-23 0 24 -19
c20 -15 21 -20 9 -31 -8 -8 -13 -24 -10 -37 2 -12 1 -31 -3 -40 -4 -10 -9 -34
-11 -53 -2 -19 -10 -58 -19 -85 -8 -28 -15 -60 -15 -73 0 -14 -8 -26 -24 -31
-30 -12 -78 -56 -69 -64 3 -4 18 -4 32 0 26 6 26 6 8 -15 -18 -20 -18 -20 3
-27 13 -4 28 -1 38 8 26 22 55 35 100 46 38 8 41 7 32 -9 -14 -27 -12 -32 10
-25 14 4 20 2 20 -9 0 -19 39 -86 51 -86 5 0 9 -10 9 -22 0 -19 2 -20 10 -8 6
10 10 11 10 3 0 -7 11 -13 25 -13 23 0 25 4 25 46 0 30 -10 65 -29 104 -45 91
-71 228 -70 368 2 173 0 179 -91 269 -70 70 -79 83 -89 133 -6 30 -10 138 -10
240 2 265 -26 430 -74 430 -6 0 -7 -19 -4 -46z"/>
<path d="M7151 2646 c-7 -8 -13 -30 -14 -49 -1 -19 -8 -41 -15 -50 -21 -25 -5
-111 25 -137 14 -12 22 -28 19 -38 -2 -9 -7 -42 -11 -74 -5 -49 -4 -59 15 -76
30 -27 13 -62 -30 -62 -30 0 -30 0 -30 -60 0 -67 -11 -77 -31 -27 -19 47 -77
121 -102 130 -21 7 -21 7 -3 -8 11 -8 16 -15 12 -15 -5 0 -4 -6 1 -12 14 -19
7 -88 -12 -108 -12 -13 -14 -28 -9 -59 4 -22 4 -41 0 -41 -12 0 -57 53 -92
108 -19 28 -41 52 -50 52 -14 0 -14 -2 1 -17 17 -17 55 -96 55 -114 0 -6 -10
-23 -21 -39 -14 -19 -19 -35 -14 -47 4 -10 9 -31 11 -48 2 -16 12 -41 23 -55
19 -26 36 -70 27 -70 -2 0 -32 42 -65 93 -33 50 -72 106 -87 122 -14 17 -22
23 -15 14 8 -12 6 -20 -9 -37 -33 -35 -20 -162 16 -162 34 0 31 -122 -4 -162
-20 -24 -1 -23 45 2 45 24 65 26 57 5 -4 -8 -1 -15 4 -15 6 0 18 -25 27 -55 9
-33 21 -55 30 -55 7 0 15 -8 17 -17 3 -14 9 -10 27 17 17 26 22 29 18 12 -5
-21 -3 -20 31 9 26 23 37 28 41 18 2 -7 10 -20 17 -27 11 -11 12 1 7 66 -6 81
5 121 42 152 19 16 28 9 28 -25 0 -14 3 -28 8 -30 12 -8 79 55 85 81 3 13 12
24 20 24 8 0 14 6 14 13 1 17 70 49 70 32 0 -8 11 -27 25 -43 14 -17 25 -34
25 -39 0 -6 9 -18 19 -27 24 -22 16 -56 -13 -56 -14 0 -28 10 -36 25 -7 14
-17 25 -22 25 -16 0 -8 -14 27 -50 32 -32 34 -38 20 -50 -8 -7 -15 -19 -15
-26 0 -8 -4 -14 -9 -14 -5 0 -11 -18 -15 -40 -4 -27 -11 -40 -22 -40 -8 0 -12
-5 -9 -10 3 -6 -1 -13 -9 -16 -9 -3 -13 -10 -10 -15 3 -5 1 -9 -4 -9 -14 0
-22 -38 -8 -44 6 -2 1 -8 -11 -11 -13 -4 -23 -11 -23 -16 0 -5 -13 -9 -30 -9
-16 0 -30 -4 -30 -10 0 -5 6 -10 13 -10 8 0 8 -3 1 -8 -20 -13 -25 -42 -8 -49
14 -5 33 1 86 28 10 5 36 9 59 9 41 0 42 -1 25 -19 -13 -15 -14 -20 -4 -24 10
-4 11 -7 1 -18 -19 -20 -16 -29 9 -26 12 1 23 -3 23 -10 0 -7 6 -18 13 -24 6
-7 12 -19 12 -26 0 -8 7 -16 15 -19 8 -4 12 -10 9 -15 -3 -5 18 -9 45 -9 28 0
51 2 51 5 0 2 -6 19 -14 37 -50 116 -56 138 -58 229 -2 83 2 104 30 185 18 50
32 108 32 128 0 42 -107 263 -143 296 -12 12 -34 20 -51 19 -17 -1 -23 -3 -13
-6 9 -2 15 -8 12 -13 -3 -5 3 -15 14 -22 18 -13 18 -15 -6 -56 -28 -47 -30
-48 -79 -27 -34 14 -35 16 -28 52 4 21 11 40 16 41 5 2 4 10 -3 18 -9 11 -8
14 6 14 17 0 18 11 12 158 -6 157 -27 344 -48 428 -13 50 -40 72 -58 50z"/>
<path d="M3323 2614 c-1 -20 -6 -41 -12 -47 -19 -19 -13 -92 9 -112 26 -23 30
-135 5 -135 -8 0 -15 -4 -15 -10 0 -5 7 -10 15 -10 8 0 15 -4 15 -10 0 -5 -7
-10 -15 -10 -8 0 -15 -4 -15 -10 0 -5 8 -10 19 -10 19 0 31 -26 31 -65 -1 -11
-12 -42 -25 -70 -31 -62 -31 -61 0 -69 15 -4 22 -11 19 -20 -3 -7 2 -16 10
-19 9 -4 16 -15 16 -25 0 -18 42 -62 59 -62 11 0 32 -56 24 -64 -4 -3 1 -6 10
-6 10 0 17 -7 17 -15 0 -8 4 -15 8 -15 5 0 15 -19 21 -42 7 -24 18 -49 23 -55
8 -10 4 -13 -13 -13 l-24 0 28 -25 c32 -31 34 -39 6 -32 -16 4 -18 3 -9 -8 17
-20 2 -108 -17 -101 -9 4 -13 0 -11 -12 1 -9 -1 -23 -6 -31 -5 -8 -9 -26 -8
-42 0 -15 -6 -33 -14 -40 -8 -6 -14 -23 -14 -36 0 -18 -4 -24 -15 -19 -17 6
-20 -5 -5 -20 6 -6 3 -15 -10 -24 -19 -13 -19 -14 2 -24 12 -6 23 -16 25 -22
4 -11 1 -12 -62 -18 -54 -5 -85 -15 -85 -28 0 -5 -7 -7 -16 -4 -8 3 -12 2 -9
-3 3 -6 -3 -14 -12 -20 -33 -19 3 -11 65 14 34 14 75 25 92 25 32 0 37 -12 31
-87 -1 -18 2 -33 7 -33 16 0 23 32 16 76 -5 36 -3 44 14 55 16 10 18 16 10 26
-7 9 -7 13 1 13 6 0 11 7 11 15 0 12 7 14 28 9 33 -8 28 -2 36 -46 5 -25 3
-38 -4 -38 -6 0 -4 -7 5 -16 11 -11 14 -26 10 -43 -3 -17 -2 -21 3 -13 8 11
10 11 15 -2 7 -17 -23 -29 -59 -26 -34 4 -42 0 -40 -17 3 -20 31 -29 41 -14 3
6 -2 12 -12 12 -10 1 4 5 32 10 56 9 55 9 58 -20 1 -19 7 -21 60 -21 43 0 58
3 54 13 -56 131 -54 125 -62 322 -8 227 -18 302 -51 374 -20 44 -24 69 -24
140 0 47 5 106 11 131 34 142 63 395 54 468 -5 38 -12 55 -27 63 -11 6 -22 8
-26 5 -3 -3 -1 -6 4 -6 14 0 5 -83 -10 -95 -20 -16 -27 -72 -12 -87 20 -20 27
-85 10 -92 -8 -3 -14 -12 -14 -20 0 -8 -5 -16 -12 -18 -16 -6 -17 -56 -1 -62
17 -7 16 -54 -2 -90 -8 -15 -15 -36 -15 -45 0 -9 -5 -22 -12 -29 -8 -8 -8 -15
1 -25 9 -11 8 -17 -4 -27 -8 -7 -15 -20 -15 -29 0 -9 -5 -22 -12 -29 -9 -9
-18 -5 -37 18 -14 16 -47 40 -73 54 -38 19 -43 25 -28 29 49 13 6 525 -47 579
-19 18 -19 18 -20 -18z"/>
<path d="M7398 2633 c-20 -5 -25 -43 -5 -43 6 -1 78 -1 159 0 80 0 149 -3 152
-8 3 -5 -22 -40 -56 -78 -73 -82 -140 -182 -136 -204 3 -13 29 -15 201 -11
l197 3 0 -66 c0 -36 3 -66 7 -66 12 0 194 153 191 160 -5 14 -176 150 -187
150 -7 0 -11 -25 -11 -65 l0 -65 -160 0 c-88 0 -160 3 -160 8 1 11 49 73 111
144 75 84 86 105 65 127 -14 13 -44 16 -184 17 -92 1 -175 0 -184 -3z"/>
<path d="M4635 2540 c-30 -37 -51 -53 -82 -62 -25 -7 -43 -18 -43 -26 0 -8
-14 -37 -31 -65 -26 -42 -29 -54 -20 -74 6 -13 11 -68 11 -121 l0 -98 51 -49
c27 -28 59 -68 70 -90 11 -22 28 -56 39 -75 44 -81 10 -66 -94 40 -48 50 -98
93 -111 96 -26 6 -48 -2 -40 -16 3 -5 1 -11 -5 -15 -5 -3 -10 -26 -10 -50 0
-36 5 -47 28 -64 57 -44 78 -69 105 -124 15 -32 27 -60 27 -62 0 -11 -17 -4
-40 18 -87 77 -183 147 -202 147 -50 0 -63 -115 -15 -124 12 -3 34 -7 48 -10
28 -6 39 -28 39 -84 0 -47 -23 -51 -91 -15 -57 31 -59 31 -91 14 -28 -14 -33
-21 -32 -51 1 -19 -5 -45 -12 -57 -19 -31 -18 -33 20 -33 28 0 33 -3 29 -18
-3 -12 7 -30 26 -50 17 -17 31 -40 31 -51 0 -12 4 -21 9 -21 12 0 52 -81 45
-91 -3 -5 7 -11 21 -15 14 -3 25 -10 25 -15 0 -4 17 -20 37 -34 29 -19 50 -25
90 -25 57 0 58 -1 43 -31 -10 -17 -7 -19 25 -19 28 0 35 4 35 20 0 29 53 28
72 -1 13 -20 23 -22 141 -23 70 0 127 3 127 7 0 5 -27 47 -61 93 -64 89 -129
192 -129 206 0 4 19 29 43 56 24 26 53 66 66 88 13 21 49 64 81 94 95 91 116
140 85 199 -24 48 -106 67 -211 51 -29 -5 -35 0 -75 57 -24 34 -69 90 -101
125 l-56 63 -3 100 c-3 94 -2 103 25 148 18 30 40 53 60 61 42 18 76 61 76 97
0 44 -29 36 -75 -21z"/>
<path d="M3045 2533 c0 -21 5 -46 9 -56 5 -9 6 -31 4 -48 -4 -23 1 -38 19 -57
13 -14 23 -38 24 -56 0 -17 2 -40 4 -51 2 -10 -1 -25 -7 -33 -9 -10 -8 -16 1
-22 8 -4 10 -13 6 -21 -6 -9 -3 -11 9 -6 10 4 25 -2 39 -16 21 -21 22 -21 25
-3 4 19 0 34 -43 176 -13 41 -29 102 -35 135 -14 70 -26 95 -44 95 -8 0 -12
-13 -11 -37z"/>
<path d="M5139 2478 c-3 -47 4 -124 12 -126 5 -2 6 -8 3 -13 -3 -5 4 -26 15
-45 12 -20 19 -40 16 -45 -4 -5 2 -9 12 -9 25 0 70 -53 78 -93 9 -42 20 -54
56 -62 16 -4 32 -12 36 -18 5 -7 20 -18 34 -24 27 -11 27 -11 32 40 5 58 -14
97 -73 152 -37 35 -131 158 -154 203 -21 41 -65 67 -67 40z"/>
<path d="M6430 2385 c0 -9 -9 -19 -20 -22 -11 -3 -20 -10 -20 -15 0 -5 4 -7 9
-4 5 3 0 -11 -10 -31 -11 -21 -19 -47 -19 -60 0 -16 -4 -21 -15 -17 -8 4 -15
1 -15 -5 0 -6 6 -11 13 -11 10 0 14 -16 14 -56 0 -34 -3 -50 -8 -42 -7 10 -9
9 -9 -4 0 -10 5 -18 10 -18 6 0 10 -16 10 -35 0 -19 -4 -35 -10 -35 -5 0 -10
-8 -10 -18 0 -10 -6 -27 -14 -37 -8 -11 -12 -25 -9 -32 3 -7 -2 -13 -11 -13
-9 0 -16 -4 -16 -10 0 -6 -9 -6 -26 0 -30 12 -44 13 -28 2 19 -13 25 -70 9
-86 -8 -8 -15 -24 -15 -35 0 -14 -5 -19 -15 -15 -11 5 -15 -1 -15 -20 0 -15
-6 -26 -14 -26 -8 0 -16 -16 -20 -42 -4 -27 -10 -38 -15 -30 -5 8 -13 -9 -21
-45 -7 -32 -19 -63 -25 -68 -7 -6 -15 -20 -19 -33 -4 -12 -14 -22 -22 -22 -19
0 -18 -10 4 -27 16 -13 16 -14 -5 -29 -30 -21 -29 -30 5 -37 22 -5 30 -14 41
-51 7 -25 19 -51 27 -57 8 -7 13 -18 10 -25 -3 -7 -1 -16 4 -19 4 -3 11 -24
15 -46 11 -62 33 -79 105 -79 60 0 60 0 49 22 -7 13 -16 36 -20 53 -4 16 -17
55 -28 85 -30 79 -30 257 0 332 70 174 90 252 100 383 11 150 35 268 62 308
24 36 16 46 -11 13 -29 -38 -34 -19 -7 25 15 22 21 41 15 44 -6 3 -10 -1 -10
-10z"/>
<path d="M5903 2327 c23 -42 23 -43 7 -133 -21 -115 -25 -122 -56 -93 -29 28
-51 68 -70 131 -8 26 -18 47 -22 46 -4 -1 -21 6 -39 15 -38 20 -67 23 -42 4
36 -28 81 -158 80 -232 -1 -40 -6 -73 -13 -80 -10 -10 -84 68 -124 130 -30 47
-39 55 -66 55 -23 0 -28 -3 -21 -12 5 -7 23 -31 40 -53 17 -22 34 -56 38 -75
4 -19 11 -39 15 -45 11 -15 11 -93 0 -100 -15 -10 -12 -82 5 -99 25 -24 17
-27 -20 -5 -31 19 -36 19 -41 5 -8 -20 4 -83 16 -91 5 -3 23 4 40 16 25 19 33
21 54 11 14 -6 28 -22 32 -36 15 -61 101 -21 146 68 11 22 48 69 80 103 33 34
57 67 53 73 -3 6 -3 10 2 9 27 -5 47 5 82 41 22 22 44 40 50 40 6 0 20 18 31
40 11 22 16 40 11 40 -5 0 -13 -9 -16 -20 -3 -11 -9 -20 -13 -20 -12 0 -50 65
-78 132 -41 99 -116 178 -168 178 -13 0 -11 -8 7 -43z"/>
<path d="M3157 2074 c-14 -18 -27 -24 -56 -24 -27 0 -41 -5 -45 -16 -9 -24 5
-144 19 -157 23 -24 26 -48 6 -65 -17 -15 -46 -91 -37 -99 1 -2 22 4 45 12 39
13 43 13 37 -1 -9 -23 13 -87 40 -120 22 -26 25 -27 34 -11 6 9 18 17 25 17 8
0 15 9 15 19 0 11 5 23 10 26 6 3 10 13 10 22 0 23 40 73 66 84 30 11 41 36
26 59 -6 10 -8 27 -6 38 5 16 1 20 -20 20 -15 0 -28 -4 -31 -8 -2 -4 -28 -1
-57 6 -29 8 -62 14 -74 14 -31 0 -54 26 -54 60 0 34 16 41 84 35 33 -3 56 1
70 10 20 14 19 15 -11 15 -27 0 -31 4 -38 36 -3 20 -9 33 -12 30 -3 -3 -11 1
-17 9 -9 12 -14 10 -29 -11z"/>
<path d="M2202 928 c16 -57 38 -134 49 -171 l20 -68 57 3 57 3 44 145 c62 208
61 190 8 190 l-45 0 -27 -112 c-15 -62 -29 -120 -32 -128 -6 -16 -19 30 -48
163 l-17 77 -48 0 -48 0 30 -102z"/>
<path d="M4450 1024 c0 -3 18 -41 41 -84 l40 -79 -44 -85 c-25 -46 -44 -86
-42 -88 2 -2 24 -2 48 0 44 4 45 5 69 60 l24 57 24 -57 24 -58 52 0 53 0 -32
58 c-66 119 -65 101 -18 190 22 44 41 83 41 87 0 3 -21 5 -47 3 -46 -3 -48 -5
-63 -45 -8 -23 -19 -45 -23 -49 -4 -4 -17 16 -29 44 l-22 52 -48 0 c-26 0 -48
-3 -48 -6z"/>
<path d="M5800 1017 c0 -12 55 -135 81 -180 6 -10 10 -48 10 -83 l0 -64 45 0
44 0 0 54 c0 43 10 74 50 160 28 59 50 111 50 116 0 6 -19 10 -43 10 l-43 0
-23 -65 c-13 -36 -26 -67 -30 -69 -4 -3 -18 27 -31 65 l-23 69 -44 0 c-29 0
-43 -4 -43 -13z"/>
<path d="M7134 1016 c-3 -8 -4 -25 -2 -38 3 -21 8 -23 55 -24 29 0 55 -3 59
-6 3 -4 -24 -52 -60 -107 -37 -57 -66 -112 -66 -126 l0 -25 125 0 125 0 0 35
0 35 -66 0 c-51 0 -65 3 -61 13 3 7 32 54 66 105 41 62 61 101 61 122 l0 30
-115 0 c-91 0 -117 -3 -121 -14z"/>
<path d="M3243 983 c3 -16 16 -92 29 -170 l23 -143 56 0 56 0 11 53 c7 28 15
74 19 101 7 54 17 46 28 -24 4 -25 11 -64 17 -87 l10 -43 57 0 57 0 22 143
c13 78 26 155 29 170 6 28 5 28 -38 25 l-44 -3 -14 -108 c-7 -60 -17 -105 -21
-100 -4 4 -14 46 -24 93 -25 126 -22 120 -66 120 l-38 0 -22 -110 c-13 -60
-26 -110 -30 -110 -4 0 -10 33 -14 73 -4 39 -9 89 -13 110 -5 36 -6 37 -50 37
-44 0 -45 -1 -40 -27z"/>
</g>
</svg>
